<svg width="22" height="13" viewBox="0 0 22 13" fill="none" xmlns="http://www.w3.org/2000/svg">
<path d="M20.2091 8.33294C20.0901 10.2079 19.5475 11.018 18.3879 11.0346C17.7045 11.0436 17.0723 10.7787 16.7907 10.1631C16.5361 9.60891 16.499 8.95493 16.3467 8.26256C15.214 8.26256 14.0033 8.24976 12.7952 8.28047C12.6595 8.28431 12.4688 8.51212 12.4061 8.67465C11.4962 11.0269 9.75821 12.4194 7.31633 12.7918C3.91844 13.3101 0.720206 11.0666 0.116137 7.69304C-0.557041 3.93809 1.75557 0.720652 5.51564 0.0807489C8.31202 -0.395339 11.2786 1.32856 12.3485 4.10062C12.5124 4.52296 12.7056 4.6471 13.1279 4.64454C15.3241 4.62918 17.5202 4.63686 19.7164 4.63686C21.0499 4.63686 21.814 5.14495 21.9714 6.13296C22.1416 7.20287 21.5516 7.95156 20.2091 8.33294ZM6.34112 3.71156C4.71704 3.77427 3.60489 5.00289 3.67528 6.65768C3.73543 8.05906 5.01268 9.21985 6.4499 9.1789C7.98695 9.13538 9.19893 7.87093 9.14902 6.36332C9.10294 4.89666 7.78858 3.65525 6.34112 3.71156Z" fill="#B9CBE5"/>
</svg>
