<svg width="21" height="20" viewBox="0 0 21 20" fill="none" xmlns="http://www.w3.org/2000/svg">
<path d="M4.13487 0.00509928C4.44498 0.00509928 4.75509 -0.00735014 5.0652 0.00665546C6.27772 0.0657902 7.10415 0.786301 7.28247 1.98923C7.41891 2.91204 7.5104 3.84108 7.60498 4.76856C7.68096 5.51086 7.42667 6.14267 6.90103 6.6671C6.35214 7.21643 5.77844 7.74397 5.27452 8.33221C5.12877 8.50339 5.0652 8.91422 5.16753 9.10407C6.71807 11.983 8.93534 14.2114 11.8069 15.7645C11.9961 15.8672 12.4054 15.7987 12.576 15.6509C13.1435 15.1638 13.6552 14.6098 14.1777 14.0714C14.7824 13.4474 15.5019 13.2155 16.3593 13.3369C17.1253 13.4458 17.8975 13.5205 18.6665 13.6092C20.0791 13.7695 20.8373 14.5943 20.8667 16.0275C20.8791 16.6235 20.8869 17.2211 20.859 17.8156C20.7939 19.2037 19.8651 20.0922 18.4836 19.9926C13.1358 19.6114 8.72757 17.3269 5.27142 13.2342C2.76419 10.2665 1.3439 6.8056 0.981074 2.93227C0.785706 0.854772 1.60749 0.00665546 3.66971 0.00043075C3.82476 0.00043075 3.97982 0.00043075 4.13487 0.00043075C4.13487 0.00198693 4.13487 0.00354311 4.13487 0.00509928Z" fill="#B9CBE5"/>
</svg>
